<svg width="84" height="22" viewBox="0 0 84 22" fill="none" xmlns="http://www.w3.org/2000/svg">
<rect width="84" height="22" rx="4" fill="#2ED47A"/>
<path d="M14.0548 7.157C15.0081 7.157 15.8001 7.399 16.4308 7.883C17.0615 8.367 17.4868 9.02333 17.7068 9.852H16.3758C16.1925 9.38267 15.8991 9.01233 15.4958 8.741C15.0998 8.46233 14.6121 8.323 14.0328 8.323C13.5708 8.323 13.1565 8.43667 12.7898 8.664C12.4305 8.89133 12.1445 9.21767 11.9318 9.643C11.7265 10.061 11.6238 10.5523 11.6238 11.117C11.6238 11.6743 11.7265 12.1657 11.9318 12.591C12.1445 13.009 12.4305 13.3317 12.7898 13.559C13.1565 13.7863 13.5708 13.9 14.0328 13.9C14.6121 13.9 15.0998 13.7643 15.4958 13.493C15.8991 13.2143 16.1925 12.844 16.3758 12.382H17.7068C17.4868 13.2107 17.0615 13.867 16.4308 14.351C15.8001 14.8277 15.0081 15.066 14.0548 15.066C13.3215 15.066 12.6725 14.901 12.1078 14.571C11.5431 14.2337 11.1068 13.768 10.7988 13.174C10.4908 12.5727 10.3368 11.887 10.3368 11.117C10.3368 10.347 10.4908 9.665 10.7988 9.071C11.1068 8.46967 11.5431 8.00033 12.1078 7.663C12.6725 7.32567 13.3215 7.157 14.0548 7.157ZM21.95 8.862C22.5366 8.862 23.0646 8.98667 23.534 9.236C24.0033 9.48533 24.37 9.84467 24.634 10.314C24.898 10.7833 25.03 11.3333 25.03 11.964C25.03 12.602 24.898 13.1557 24.634 13.625C24.37 14.0943 24.0033 14.4537 23.534 14.703C23.0646 14.9523 22.5366 15.077 21.95 15.077C21.3633 15.077 20.8353 14.9523 20.366 14.703C19.904 14.4537 19.5373 14.0943 19.266 13.625C19.002 13.1483 18.87 12.5947 18.87 11.964C18.87 11.3333 19.002 10.7833 19.266 10.314C19.5373 9.84467 19.904 9.48533 20.366 9.236C20.8353 8.98667 21.3633 8.862 21.95 8.862ZM21.95 9.951C21.6273 9.951 21.3303 10.0243 21.059 10.171C20.7876 10.3177 20.5676 10.545 20.399 10.853C20.2376 11.1537 20.157 11.524 20.157 11.964C20.157 12.4113 20.2376 12.7853 20.399 13.086C20.5676 13.3867 20.7876 13.6103 21.059 13.757C21.3303 13.9037 21.6273 13.977 21.95 13.977C22.2726 13.977 22.5696 13.9037 22.841 13.757C23.1123 13.6103 23.3286 13.3867 23.49 13.086C23.6586 12.7853 23.743 12.4113 23.743 11.964C23.743 11.524 23.6586 11.1537 23.49 10.853C23.3286 10.545 23.1123 10.3177 22.841 10.171C22.5696 10.0243 22.2726 9.951 21.95 9.951ZM34.0346 8.84C34.7532 8.84 35.3252 9.06733 35.7506 9.522C36.1832 9.97667 36.3996 10.6257 36.3996 11.469V15H35.1456V11.601C35.1456 11.073 35.0136 10.666 34.7496 10.38C34.4856 10.0867 34.1226 9.94 33.6606 9.94C33.1692 9.94 32.7769 10.0977 32.4836 10.413C32.1976 10.721 32.0546 11.1757 32.0546 11.777V15H30.8006V11.601C30.8006 11.073 30.6686 10.666 30.4046 10.38C30.1406 10.0867 29.7776 9.94 29.3156 9.94C28.8242 9.94 28.4319 10.0977 28.1386 10.413C27.8526 10.721 27.7096 11.1757 27.7096 11.777V15H26.4556V8.939H27.7096V10.204C27.8636 9.764 28.1202 9.42667 28.4796 9.192C28.8389 8.95733 29.2606 8.84 29.7446 8.84C30.2506 8.84 30.6869 8.96467 31.0536 9.214C31.4276 9.46333 31.6989 9.82267 31.8676 10.292C32.0436 9.83733 32.3259 9.48167 32.7146 9.225C33.1032 8.96833 33.5432 8.84 34.0346 8.84ZM41.5598 8.862C42.0878 8.862 42.5571 8.98667 42.9678 9.236C43.3858 9.48533 43.7121 9.84467 43.9468 10.314C44.1815 10.7833 44.2988 11.3333 44.2988 11.964C44.2988 12.602 44.1815 13.1557 43.9468 13.625C43.7121 14.0943 43.3858 14.4537 42.9678 14.703C42.5571 14.9523 42.0878 15.077 41.5598 15.077C41.0098 15.077 40.5405 14.9413 40.1518 14.67C39.7631 14.3987 39.4918 14.0393 39.3378 13.592V17.882H38.0838V8.939H39.3378V10.347C39.4918 9.89967 39.7631 9.54033 40.1518 9.269C40.5405 8.99767 41.0098 8.862 41.5598 8.862ZM41.1748 9.962C40.8228 9.962 40.5075 10.0463 40.2288 10.215C39.9501 10.3763 39.7301 10.611 39.5688 10.919C39.4075 11.2197 39.3268 11.568 39.3268 11.964C39.3268 12.3673 39.4075 12.7193 39.5688 13.02C39.7301 13.3207 39.9501 13.5553 40.2288 13.724C40.5075 13.8853 40.8228 13.966 41.1748 13.966C41.7321 13.966 42.1795 13.79 42.5168 13.438C42.8541 13.0787 43.0228 12.5873 43.0228 11.964C43.0228 11.348 42.8541 10.8603 42.5168 10.501C42.1795 10.1417 41.7321 9.962 41.1748 9.962ZM46.9806 6.86V15H45.7266V6.86H46.9806ZM54.3501 11.678C54.3501 11.8833 54.3355 12.063 54.3061 12.217H49.6421C49.6641 12.8403 49.8365 13.3023 50.1591 13.603C50.4818 13.9037 50.8815 14.054 51.3581 14.054C51.7761 14.054 52.1281 13.9477 52.4141 13.735C52.7075 13.5223 52.8871 13.24 52.9531 12.888H54.2951C54.2145 13.3133 54.0458 13.691 53.7891 14.021C53.5325 14.351 53.1988 14.6113 52.7881 14.802C52.3775 14.9853 51.9191 15.077 51.4131 15.077C50.8265 15.077 50.3058 14.9523 49.8511 14.703C49.4038 14.4537 49.0518 14.0943 48.7951 13.625C48.5385 13.1557 48.4101 12.602 48.4101 11.964C48.4101 11.3333 48.5385 10.7833 48.7951 10.314C49.0518 9.84467 49.4038 9.48533 49.8511 9.236C50.3058 8.98667 50.8265 8.862 51.4131 8.862C52.0071 8.862 52.5241 8.98667 52.9641 9.236C53.4115 9.478 53.7525 9.81533 53.9871 10.248C54.2291 10.6733 54.3501 11.15 54.3501 11.678ZM53.0851 11.645C53.0998 11.249 53.0301 10.919 52.8761 10.655C52.7295 10.3837 52.5241 10.1857 52.2601 10.061C52.0035 9.929 51.7211 9.863 51.4131 9.863C50.9218 9.863 50.5111 10.0133 50.1811 10.314C49.8511 10.6147 49.6715 11.0583 49.6421 11.645H53.0851ZM58.8279 13.911V15H58.0579C57.4126 15 56.9212 14.846 56.5839 14.538C56.2539 14.2227 56.0889 13.702 56.0889 12.976V10.006H55.2199V8.939H56.0889V7.432H57.3539V8.939H58.8169V10.006H57.3539V12.998C57.3539 13.3427 57.4162 13.581 57.5409 13.713C57.6729 13.845 57.9002 13.911 58.2229 13.911H58.8279ZM65.8546 11.678C65.8546 11.8833 65.8399 12.063 65.8106 12.217H61.1466C61.1686 12.8403 61.3409 13.3023 61.6636 13.603C61.9862 13.9037 62.3859 14.054 62.8626 14.054C63.2806 14.054 63.6326 13.9477 63.9186 13.735C64.2119 13.5223 64.3916 13.24 64.4576 12.888H65.7996C65.7189 13.3133 65.5502 13.691 65.2936 14.021C65.0369 14.351 64.7032 14.6113 64.2926 14.802C63.8819 14.9853 63.4236 15.077 62.9176 15.077C62.3309 15.077 61.8102 14.9523 61.3556 14.703C60.9082 14.4537 60.5562 14.0943 60.2996 13.625C60.0429 13.1557 59.9146 12.602 59.9146 11.964C59.9146 11.3333 60.0429 10.7833 60.2996 10.314C60.5562 9.84467 60.9082 9.48533 61.3556 9.236C61.8102 8.98667 62.3309 8.862 62.9176 8.862C63.5116 8.862 64.0286 8.98667 64.4686 9.236C64.9159 9.478 65.2569 9.81533 65.4916 10.248C65.7336 10.6733 65.8546 11.15 65.8546 11.678ZM64.5896 11.645C64.6042 11.249 64.5346 10.919 64.3806 10.655C64.2339 10.3837 64.0286 10.1857 63.7646 10.061C63.5079 9.929 63.2256 9.863 62.9176 9.863C62.4262 9.863 62.0156 10.0133 61.6856 10.314C61.3556 10.6147 61.1759 11.0583 61.1466 11.645H64.5896ZM69.7163 8.862C70.2663 8.862 70.7357 8.99767 71.1243 9.269C71.513 9.54033 71.7843 9.89967 71.9383 10.347V6.86H73.2033V15H71.9383V13.592C71.7843 14.0393 71.513 14.3987 71.1243 14.67C70.7357 14.9413 70.2663 15.077 69.7163 15.077C69.1883 15.077 68.7153 14.9523 68.2973 14.703C67.8867 14.4537 67.564 14.0943 67.3293 13.625C67.0947 13.1557 66.9773 12.602 66.9773 11.964C66.9773 11.3333 67.0947 10.7833 67.3293 10.314C67.564 9.84467 67.8867 9.48533 68.2973 9.236C68.7153 8.98667 69.1883 8.862 69.7163 8.862ZM70.1013 9.962C69.544 9.962 69.0967 10.1417 68.7593 10.501C68.4293 10.853 68.2643 11.3407 68.2643 11.964C68.2643 12.5873 68.4293 13.0787 68.7593 13.438C69.0967 13.79 69.544 13.966 70.1013 13.966C70.4533 13.966 70.7687 13.8853 71.0473 13.724C71.326 13.5553 71.546 13.3207 71.7073 13.02C71.8687 12.7193 71.9493 12.3673 71.9493 11.964C71.9493 11.568 71.8687 11.2197 71.7073 10.919C71.546 10.611 71.326 10.3763 71.0473 10.215C70.7687 10.0463 70.4533 9.962 70.1013 9.962Z" fill="white"/>
</svg>
