<svg width="84" height="22" viewBox="0 0 84 22" fill="none" xmlns="http://www.w3.org/2000/svg">
<rect width="84" height="22" rx="4" fill="#F7685B"/>
<path d="M26.1949 8.246V10.6H29.0549V11.568H26.1949V13.977H29.3849V15H24.9409V7.234H29.3849V8.246H26.1949ZM34.2101 8.84C34.9141 8.84 35.4787 9.06733 35.9041 9.522C36.3294 9.97667 36.5421 10.6257 36.5421 11.469V15H35.2881V11.601C35.2881 11.0583 35.1487 10.6403 34.8701 10.347C34.5914 10.0463 34.2101 9.896 33.7261 9.896C33.2274 9.896 32.8277 10.0573 32.5271 10.38C32.2264 10.6953 32.0761 11.161 32.0761 11.777V15H30.8221V8.939H32.0761V10.27C32.2374 9.81533 32.5087 9.46333 32.8901 9.214C33.2714 8.96467 33.7114 8.84 34.2101 8.84ZM40.6596 8.862C41.2096 8.862 41.6789 8.99767 42.0676 9.269C42.4563 9.54033 42.7276 9.89967 42.8816 10.347V6.86H44.1466V15H42.8816V13.592C42.7276 14.0393 42.4563 14.3987 42.0676 14.67C41.6789 14.9413 41.2096 15.077 40.6596 15.077C40.1316 15.077 39.6586 14.9523 39.2406 14.703C38.8299 14.4537 38.5073 14.0943 38.2726 13.625C38.0379 13.1557 37.9206 12.602 37.9206 11.964C37.9206 11.3333 38.0379 10.7833 38.2726 10.314C38.5073 9.84467 38.8299 9.48533 39.2406 9.236C39.6586 8.98667 40.1316 8.862 40.6596 8.862ZM41.0446 9.962C40.4873 9.962 40.0399 10.1417 39.7026 10.501C39.3726 10.853 39.2076 11.3407 39.2076 11.964C39.2076 12.5873 39.3726 13.0787 39.7026 13.438C40.0399 13.79 40.4873 13.966 41.0446 13.966C41.3966 13.966 41.7119 13.8853 41.9906 13.724C42.2693 13.5553 42.4893 13.3207 42.6506 13.02C42.8119 12.7193 42.8926 12.3673 42.8926 11.964C42.8926 11.568 42.8119 11.2197 42.6506 10.919C42.4893 10.611 42.2693 10.3763 41.9906 10.215C41.7119 10.0463 41.3966 9.962 41.0446 9.962ZM51.5034 11.678C51.5034 11.8833 51.4888 12.063 51.4594 12.217H46.7954C46.8174 12.8403 46.9898 13.3023 47.3124 13.603C47.6351 13.9037 48.0348 14.054 48.5114 14.054C48.9294 14.054 49.2814 13.9477 49.5674 13.735C49.8608 13.5223 50.0404 13.24 50.1064 12.888H51.4484C51.3678 13.3133 51.1991 13.691 50.9424 14.021C50.6858 14.351 50.3521 14.6113 49.9414 14.802C49.5308 14.9853 49.0724 15.077 48.5664 15.077C47.9798 15.077 47.4591 14.9523 47.0044 14.703C46.5571 14.4537 46.2051 14.0943 45.9484 13.625C45.6918 13.1557 45.5634 12.602 45.5634 11.964C45.5634 11.3333 45.6918 10.7833 45.9484 10.314C46.2051 9.84467 46.5571 9.48533 47.0044 9.236C47.4591 8.98667 47.9798 8.862 48.5664 8.862C49.1604 8.862 49.6774 8.98667 50.1174 9.236C50.5648 9.478 50.9058 9.81533 51.1404 10.248C51.3824 10.6733 51.5034 11.15 51.5034 11.678ZM50.2384 11.645C50.2531 11.249 50.1834 10.919 50.0294 10.655C49.8828 10.3837 49.6774 10.1857 49.4134 10.061C49.1568 9.929 48.8744 9.863 48.5664 9.863C48.0751 9.863 47.6644 10.0133 47.3344 10.314C47.0044 10.6147 46.8248 11.0583 46.7954 11.645H50.2384ZM55.3652 8.862C55.9152 8.862 56.3846 8.99767 56.7732 9.269C57.1619 9.54033 57.4332 9.89967 57.5872 10.347V6.86H58.8522V15H57.5872V13.592C57.4332 14.0393 57.1619 14.3987 56.7732 14.67C56.3846 14.9413 55.9152 15.077 55.3652 15.077C54.8372 15.077 54.3642 14.9523 53.9462 14.703C53.5356 14.4537 53.2129 14.0943 52.9782 13.625C52.7436 13.1557 52.6262 12.602 52.6262 11.964C52.6262 11.3333 52.7436 10.7833 52.9782 10.314C53.2129 9.84467 53.5356 9.48533 53.9462 9.236C54.3642 8.98667 54.8372 8.862 55.3652 8.862ZM55.7502 9.962C55.1929 9.962 54.7456 10.1417 54.4082 10.501C54.0782 10.853 53.9132 11.3407 53.9132 11.964C53.9132 12.5873 54.0782 13.0787 54.4082 13.438C54.7456 13.79 55.1929 13.966 55.7502 13.966C56.1022 13.966 56.4176 13.8853 56.6962 13.724C56.9749 13.5553 57.1949 13.3207 57.3562 13.02C57.5176 12.7193 57.5982 12.3673 57.5982 11.964C57.5982 11.568 57.5176 11.2197 57.3562 10.919C57.1949 10.611 56.9749 10.3763 56.6962 10.215C56.4176 10.0463 56.1022 9.962 55.7502 9.962Z" fill="white"/>
</svg>
